REM DIRINDEX 1\2\3,1\2\4,1\2\5,1\2\6
REM DIRNAME cjc157,folder01,folder02,folder03,folder04,folder05
TITLE ""
FILE "026 026.mp3" MP3
  TRACK 01 AUDIO
    TITLE "0:"
    INDEX 01 00:00:00
  TRACK 02 AUDIO
    TITLE "3:cjc157_0967"
    INDEX 01 00:00:09
  TRACK 03 AUDIO
    TITLE "0:"
    INDEX 01 00:01:42
  TRACK 04 AUDIO
    TITLE "4:cjc157_0968"
    INDEX 01 00:02:12
  TRACK 05 AUDIO
    TITLE "0:"
    INDEX 01 00:03:29
  TRACK 06 AUDIO
    TITLE "5:cjc157_0969"
    INDEX 01 00:03:72
  TRACK 07 AUDIO
    TITLE "0:"
    INDEX 01 00:06:63
  TRACK 08 AUDIO
    TITLE "5:cjc157_0970"
    INDEX 01 00:07:33
  TRACK 09 AUDIO
    TITLE "0:"
    INDEX 01 00:10:04
  TRACK 10 AUDIO
    TITLE "3:cjc157_0971"
    INDEX 01 00:10:45
  TRACK 11 AUDIO
    TITLE "0:"
    INDEX 01 00:12:36
  TRACK 12 AUDIO
    TITLE "4:cjc157_0972"
    INDEX 01 00:13:10
  TRACK 13 AUDIO
    TITLE "0:"
    INDEX 01 00:14:25
  TRACK 14 AUDIO
    TITLE "5:cjc157_0973"
    INDEX 01 00:14:68
  TRACK 15 AUDIO
    TITLE "0:"
    INDEX 01 00:16:63
  TRACK 16 AUDIO
    TITLE "5:cjc157_0974"
    INDEX 01 00:17:39
  TRACK 17 AUDIO
    TITLE "0:"
    INDEX 01 00:20:10
  TRACK 18 AUDIO
    TITLE "3:cjc157_0975"
    INDEX 01 00:20:55
  TRACK 19 AUDIO
    TITLE "0:"
    INDEX 01 00:22:30
  TRACK 20 AUDIO
    TITLE "4:cjc157_0976"
    INDEX 01 00:23:04
  TRACK 21 AUDIO
    TITLE "0:"
    INDEX 01 00:24:35
  TRACK 22 AUDIO
    TITLE "5:cjc157_0977"
    INDEX 01 00:25:01
  TRACK 23 AUDIO
    TITLE "0:"
    INDEX 01 00:28:31
  TRACK 24 AUDIO
    TITLE "3:cjc157_0978"
    INDEX 01 00:28:72
  TRACK 25 AUDIO
    TITLE "0:"
    INDEX 01 00:30:14
  TRACK 26 AUDIO
    TITLE "4:cjc157_0979"
    INDEX 01 00:30:61
  TRACK 27 AUDIO
    TITLE "0:"
    INDEX 01 00:31:63
  TRACK 28 AUDIO
    TITLE "5:cjc157_0980"
    INDEX 01 00:32:39
  TRACK 29 AUDIO
    TITLE "0:"
    INDEX 01 00:34:43
  TRACK 30 AUDIO
    TITLE "3:cjc157_0981"
    INDEX 01 00:35:14
  TRACK 31 AUDIO
    TITLE "0:"
    INDEX 01 00:36:29
  TRACK 32 AUDIO
    TITLE "4:cjc157_0982"
    INDEX 01 00:37:01
  TRACK 33 AUDIO
    TITLE "0:"
    INDEX 01 00:38:10
  TRACK 34 AUDIO
    TITLE "5:cjc157_0983"
    INDEX 01 00:38:61
  TRACK 35 AUDIO
    TITLE "0:"
    INDEX 01 00:41:08
  TRACK 36 AUDIO
    TITLE "5:cjc157_0984"
    INDEX 01 00:41:53
  TRACK 37 AUDIO
    TITLE "0:"
    INDEX 01 00:43:72
  TRACK 38 AUDIO
    TITLE "3:cjc157_0985"
    INDEX 01 00:44:56
  TRACK 39 AUDIO
    TITLE "0:"
    INDEX 01 00:45:71
  TRACK 40 AUDIO
    TITLE "4:cjc157_0986"
    INDEX 01 00:46:43
  TRACK 41 AUDIO
    TITLE "0:"
    INDEX 01 00:47:58
  TRACK 42 AUDIO
    TITLE "5:cjc157_0987"
    INDEX 01 00:48:28
  TRACK 43 AUDIO
    TITLE "0:"
    INDEX 01 00:52:06
  TRACK 44 AUDIO
    TITLE "5:cjc157_0988"
    INDEX 01 00:52:53
  TRACK 45 AUDIO
    TITLE "0:"
    INDEX 01 00:57:05
  TRACK 46 AUDIO
    TITLE "3:cjc157_0989"
    INDEX 01 00:57:50
  TRACK 47 AUDIO
    TITLE "0:"
    INDEX 01 00:59:00
  TRACK 48 AUDIO
    TITLE "4:cjc157_0990"
    INDEX 01 00:59:51
  TRACK 49 AUDIO
    TITLE "0:"
    INDEX 01 01:00:47
  TRACK 50 AUDIO
    TITLE "5:cjc157_0991"
    INDEX 01 01:01:19
  TRACK 51 AUDIO
    TITLE "0:"
    INDEX 01 01:03:43
  TRACK 52 AUDIO
    TITLE "5:cjc157_0992"
    INDEX 01 01:04:13
  TRACK 53 AUDIO
    TITLE "0:"
    INDEX 01 01:06:08
  TRACK 54 AUDIO
    TITLE "5:cjc157_0993"
    INDEX 01 01:06:55
  TRACK 55 AUDIO
    TITLE "0:"
    INDEX 01 01:08:38
  TRACK 56 AUDIO
    TITLE "3:cjc157_0994"
    INDEX 01 01:09:09
  TRACK 57 AUDIO
    TITLE "0:"
    INDEX 01 01:10:35
  TRACK 58 AUDIO
    TITLE "4:cjc157_0995"
    INDEX 01 01:11:05
  TRACK 59 AUDIO
    TITLE "0:"
    INDEX 01 01:12:07
  TRACK 60 AUDIO
    TITLE "5:cjc157_0996"
    INDEX 01 01:12:54
  TRACK 61 AUDIO
    TITLE "0:"
    INDEX 01 01:15:07
  TRACK 62 AUDIO
    TITLE "5:cjc157_0997"
    INDEX 01 01:15:52
  TRACK 63 AUDIO
    TITLE "0:"
    INDEX 01 01:17:73
  TRACK 64 AUDIO
    TITLE "3:cjc157_0998"
    INDEX 01 01:18:43
  TRACK 65 AUDIO
    TITLE "0:"
    INDEX 01 01:19:42
  TRACK 66 AUDIO
    TITLE "4:cjc157_0999"
    INDEX 01 01:20:18
  TRACK 67 AUDIO
    TITLE "0:"
    INDEX 01 01:21:25
  TRACK 68 AUDIO
    TITLE "5:cjc157_1000"
    INDEX 01 01:21:70
  TRACK 69 AUDIO
    TITLE "0:"
    INDEX 01 01:23:38
  TRACK 70 AUDIO
    TITLE "5:cjc157_1001"
    INDEX 01 01:24:08
  TRACK 71 AUDIO
    TITLE "0:"
    INDEX 01 01:25:74
  TRACK 72 AUDIO
    TITLE "3:cjc157_1002"
    INDEX 01 01:26:42
  TRACK 73 AUDIO
    TITLE "0:"
    INDEX 01 01:28:12
  TRACK 74 AUDIO
    TITLE "4:cjc157_1003"
    INDEX 01 01:28:57
  TRACK 75 AUDIO
    TITLE "0:"
    INDEX 01 01:30:03
  TRACK 76 AUDIO
    TITLE "5:cjc157_1004"
    INDEX 01 01:30:48
  TRACK 77 AUDIO
    TITLE "0:"
    INDEX 01 01:33:70
  TRACK 78 AUDIO
    TITLE "5:cjc157_1005"
    INDEX 01 01:34:40
  TRACK 79 AUDIO
    TITLE "0:"
    INDEX 01 01:36:48
